<svg width="12" height="13" viewBox="0 0 12 13" fill="none" xmlns="http://www.w3.org/2000/svg">
<path d="M4.5 7.025C4.5 7.84 5.17 8.5 6 8.5C6.83 8.5 7.5 7.84 7.5 7.025C7.5 6.37 7.235 6.18 6 4.75C4.75 6.19 4.5 6.375 4.5 7.025ZM10 7C10.275 7 10.5 6.775 10.5 6.5C10.5 6.225 10.275 6 10 6H9.5V3H10C10.275 3 10.5 2.775 10.5 2.5C10.5 2.225 10.275 2 10 2H2C1.725 2 1.5 2.225 1.5 2.5C1.5 2.775 1.725 3 2 3H2.5V6H2C1.725 6 1.5 6.225 1.5 6.5C1.5 6.775 1.725 7 2 7H2.5V10H2C1.725 10 1.5 10.225 1.5 10.5C1.5 10.775 1.725 11 2 11H10C10.275 11 10.5 10.775 10.5 10.5C10.5 10.225 10.275 10 10 10H9.5V7H10ZM8.5 10H3.5V7C3.775 7 4 6.775 4 6.5C4 6.225 3.775 6 3.5 6V3H8.5V6C8.225 6 8 6.225 8 6.5C8 6.775 8.225 7 8.5 7V10Z" fill="#9CA3AF"/>
</svg>
