<svg width="12" height="13" viewBox="0 0 12 13" fill="none" xmlns="http://www.w3.org/2000/svg">
<path d="M1 2.49989C1.00009 2.31847 1.04953 2.14049 1.14302 1.98502C1.23652 1.82954 1.37054 1.70243 1.53075 1.6173C1.69096 1.53217 1.8713 1.49222 2.05248 1.50174C2.23365 1.51126 2.40881 1.56989 2.55922 1.67134C2.70962 1.7728 2.82959 1.91325 2.90627 2.07767C2.98296 2.24209 3.01347 2.42427 2.99454 2.6047C2.97562 2.78513 2.90796 2.95701 2.79882 3.10193C2.68969 3.24686 2.54318 3.35936 2.375 3.42739V6.12489H5.625V3.42739C5.40987 3.34037 5.2317 3.18123 5.12103 2.97725C5.01036 2.77327 4.97409 2.53714 5.01841 2.30935C5.06274 2.08155 5.18492 1.87627 5.36401 1.72867C5.54309 1.58108 5.76793 1.50037 6 1.50037C6.23207 1.50037 6.45691 1.58108 6.636 1.72867C6.81508 1.87627 6.93726 2.08155 6.98159 2.30935C7.02592 2.53714 6.98964 2.77327 6.87897 2.97725C6.7683 3.18123 6.59013 3.34037 6.375 3.42739V6.12489H8C8.482 6.12489 8.806 6.12389 9.0475 6.09189C9.278 6.06039 9.377 6.00689 9.442 5.94189C9.507 5.87689 9.5605 5.77789 9.592 5.54689C9.624 5.30589 9.625 4.98189 9.625 4.49989V3.42739C9.40987 3.34037 9.2317 3.18123 9.12103 2.97725C9.01036 2.77327 8.97409 2.53714 9.01841 2.30935C9.06274 2.08155 9.18492 1.87627 9.364 1.72867C9.54309 1.58108 9.76793 1.50037 10 1.50037C10.2321 1.50037 10.4569 1.58108 10.636 1.72867C10.8151 1.87627 10.9373 2.08155 10.9816 2.30935C11.0259 2.53714 10.9896 2.77327 10.879 2.97725C10.7683 3.18123 10.5901 3.34037 10.375 3.42739V4.52589C10.375 4.97489 10.375 5.34989 10.335 5.64689C10.293 5.96089 10.2 6.24439 9.972 6.47189C9.7445 6.69989 9.461 6.79289 9.147 6.83489C8.85 6.87489 8.4755 6.87489 8.026 6.87489H6.375V9.57239C6.59013 9.65942 6.7683 9.81856 6.87897 10.0225C6.98964 10.2265 7.02592 10.4626 6.98159 10.6904C6.93726 10.9182 6.81508 11.1235 6.636 11.2711C6.45691 11.4187 6.23207 11.4994 6 11.4994C5.76793 11.4994 5.54309 11.4187 5.36401 11.2711C5.18492 11.1235 5.06274 10.9182 5.01841 10.6904C4.97409 10.4626 5.01036 10.2265 5.12103 10.0225C5.2317 9.81856 5.40987 9.65942 5.625 9.57239V6.87489H2.375V9.57239C2.59013 9.65942 2.7683 9.81856 2.87897 10.0225C2.98964 10.2265 3.02592 10.4626 2.98159 10.6904C2.93726 10.9182 2.81508 11.1235 2.636 11.2711C2.45691 11.4187 2.23207 11.4994 2 11.4994C1.76793 11.4994 1.54309 11.4187 1.36401 11.2711C1.18492 11.1235 1.06274 10.9182 1.01841 10.6904C0.974086 10.4626 1.01036 10.2265 1.12103 10.0225C1.2317 9.81856 1.40987 9.65942 1.625 9.57239V3.42739C1.44027 3.35266 1.28207 3.22444 1.17071 3.05919C1.05935 2.89393 0.999907 2.69917 1 2.49989Z" fill="#9CA3AF"/>
<path fill-rule="evenodd" clip-rule="evenodd" d="M8.625 8C8.625 7.90054 8.66451 7.80516 8.73483 7.73484C8.80516 7.66451 8.90054 7.625 9 7.625H10.143C10.8305 7.625 11.375 8.192 11.375 8.875C11.376 9.13204 11.2978 9.38315 11.151 9.59412C11.0042 9.8051 10.7959 9.96568 10.5545 10.054L11.3195 11.304C11.3452 11.346 11.3625 11.3926 11.3702 11.4413C11.3779 11.4899 11.3759 11.5396 11.3644 11.5875C11.3529 11.6354 11.3321 11.6806 11.3032 11.7204C11.2742 11.7603 11.2377 11.794 11.1958 11.8197C11.1538 11.8455 11.1071 11.8627 11.0585 11.8704C11.0098 11.8781 10.9601 11.8762 10.9122 11.8647C10.8644 11.8532 10.8192 11.8324 10.7793 11.8034C10.7395 11.7745 10.7057 11.738 10.68 11.696L9.7185 10.125H9.375V11.5C9.375 11.5995 9.33549 11.6948 9.26517 11.7652C9.19484 11.8355 9.09946 11.875 9 11.875C8.90054 11.875 8.80516 11.8355 8.73483 11.7652C8.66451 11.6948 8.625 11.5995 8.625 11.5V8ZM9.375 9.375H10.143C10.402 9.375 10.625 9.1585 10.625 8.875C10.625 8.5915 10.402 8.375 10.143 8.375H9.375V9.375Z" fill="#9CA3AF"/>
</svg>
